<svg xmlns="http://www.w3.org/2000/svg" xmlns:xlink="http://www.w3.org/1999/xlink" width="237.876" height="112.40200000000002"><path fill="none" stroke="darkgrey" d="M39.13 34.31L39.39 28.64L3.35 28.64L2.75 40.85L4.82 40.85C4.93 38.56 5.62 36.94 6.88 35.99C8.14 35.05 10.00 34.54 12.47 34.49L35.17 34.40C31.62 41.34 27.09 50.91 21.59 63.12L19.01 68.89L17.80 71.47C15.91 75.59 14.51 78.82 13.59 81.14C12.67 83.46 12.21 85.28 12.21 86.60C12.21 89.01 13.27 90.21 15.39 90.21C16.54 90.21 17.47 89.74 18.19 88.80C18.91 87.85 19.52 86.54 20.04 84.88L21.67 79.46C24.88 68.91 27.63 60.52 29.93 54.27C32.22 48.02 35.29 41.37 39.13 34.31ZM75.21 31.00C71.97 28.51 67.80 27.26 62.69 27.26C58.97 27.26 55.69 27.92 52.85 29.24C50.01 30.56 47.83 32.22 46.31 34.23C44.79 36.23 44.03 38.21 44.03 40.16C44.03 41.42 44.42 42.46 45.19 43.26C45.97 44.06 46.93 44.46 48.07 44.46C49.28 44.46 50.25 44.06 51.00 43.26C51.74 42.46 52.12 41.51 52.12 40.42C52.12 38.87 51.69 37.64 50.83 36.72C51.57 34.94 52.90 33.48 54.83 32.34C56.75 31.19 58.85 30.62 61.15 30.62C64.93 30.62 67.61 31.85 69.19 34.31C70.76 36.78 71.47 39.99 71.29 43.95C71.18 46.64 70.05 49.64 67.90 52.93C65.75 56.23 62.95 59.45 59.51 62.61L56.50 65.19C53.06 68.17 50.37 70.68 48.42 72.71C46.47 74.75 44.82 77.10 43.47 79.77C42.13 82.43 41.37 85.46 41.19 88.84L78.35 88.84L79.55 76.97L76.88 76.97C76.77 79.38 75.95 80.98 74.43 81.79C72.91 82.59 70.58 82.99 67.42 82.99C65.19 82.99 63.44 82.96 62.18 82.90L47.21 82.47C47.79 80.07 49.31 77.53 51.77 74.86C54.24 72.20 57.62 69.23 61.92 65.96C73.33 57.13 79.23 49.42 79.64 42.83C79.92 37.44 78.45 33.50 75.21 31.00ZM146.72 49.19C144.94 46.33 142.39 44.89 139.06 44.89C137.28 44.89 135.98 45.32 135.15 46.18C134.32 47.04 133.90 48.02 133.90 49.11C133.90 50.31 134.27 51.23 135.02 51.86C135.77 52.49 136.60 52.80 137.51 52.80C139.23 52.80 140.41 52.09 141.04 50.65C143.79 51.86 145.17 55.15 145.17 60.54C145.17 62.21 145.04 63.86 144.78 65.49C144.52 67.12 144.22 68.48 143.88 69.57C142.39 74.10 140.12 77.86 137.08 80.84C134.05 83.82 130.92 85.31 127.71 85.31C125.93 85.31 124.70 84.70 124.01 83.46C123.32 82.23 122.98 80.61 122.98 78.60C122.98 77.06 123.11 75.25 123.37 73.19L124.18 66.91C124.70 63.41 125.10 60.36 125.39 57.75C125.67 55.14 125.82 52.46 125.82 49.71C125.82 47.99 125.70 46.70 125.47 45.84L118.08 45.84C118.48 49.05 118.68 52.26 118.68 55.47C118.68 61.49 117.96 66.75 116.53 71.25C115.10 75.75 113.23 79.21 110.94 81.61C108.65 84.02 106.24 85.23 103.72 85.23C102.40 85.23 101.45 84.74 100.88 83.76C100.30 82.79 100.02 81.56 100.02 80.07C100.02 78.40 100.33 74.79 100.96 69.23C101.88 61.78 102.34 56.44 102.34 53.23C102.34 50.54 101.75 48.48 100.58 47.04C99.40 45.61 97.67 44.89 95.37 44.89C92.34 44.89 89.88 46.21 88.02 48.85C86.16 51.49 84.97 54.21 84.45 57.02L86.86 57.53C87.66 54.67 88.61 52.56 89.70 51.21C90.79 49.87 91.85 49.19 92.88 49.19C93.80 49.19 94.41 49.54 94.73 50.22C95.04 50.91 95.20 51.92 95.20 53.23C95.20 54.32 94.92 57.33 94.34 62.26C94.00 64.90 93.68 67.71 93.40 70.69C93.11 73.67 92.97 76.31 92.97 78.60C92.97 81.99 93.67 84.70 95.07 86.73C96.48 88.77 98.76 89.78 101.91 89.78C104.95 89.78 107.87 88.51 110.68 85.96C113.49 83.41 115.50 80.35 116.70 76.80L116.87 76.80C116.82 77.37 116.79 78.17 116.79 79.21C116.79 83.05 117.63 85.77 119.33 87.38C121.02 88.98 123.09 89.78 125.56 89.78C130.26 89.78 134.56 88.08 138.46 84.67C142.36 81.26 145.28 76.88 147.23 71.55C148.67 67.60 149.38 63.73 149.38 59.94C149.38 55.64 148.49 52.06 146.72 49.19ZM185.76 47.30C183.47 45.69 180.60 44.89 177.16 44.89C172.69 44.89 168.88 46.12 165.72 48.59C162.57 51.06 160.20 54.28 158.63 58.27C157.05 62.25 156.26 66.56 156.26 71.21C156.26 77.00 157.60 81.54 160.26 84.84C162.93 88.14 166.90 89.78 172.17 89.78C176.07 89.78 179.51 88.74 182.49 86.65C185.47 84.55 188.17 81.24 190.58 76.71L187.74 75.08C185.90 78.52 183.75 81.11 181.29 82.86C178.82 84.61 176.27 85.48 173.63 85.48C170.31 85.48 167.84 84.14 166.24 81.44C164.63 78.75 163.83 74.71 163.83 69.32C170.54 68.57 176.44 67.02 181.55 64.67C186.65 62.32 189.20 59.02 189.20 54.78C189.20 51.40 188.05 48.91 185.76 47.30ZM167.44 53.15C169.45 49.59 172.29 47.82 175.96 47.82C177.91 47.82 179.41 48.43 180.47 49.67C181.53 50.90 182.06 52.46 182.06 54.35C182.06 57.45 180.28 60.03 176.73 62.09C173.18 64.16 168.90 65.53 163.92 66.22C164.26 61.06 165.44 56.70 167.44 53.15ZM208.81 38.44C209.50 32.48 210.13 27.63 210.70 23.91L208.21 23.91C207.35 24.65 206.17 25.23 204.68 25.63C203.19 26.03 200.72 26.23 197.28 26.23L196.94 29.67L203.13 29.33C202.96 30.30 202.79 31.82 202.62 33.88C202.04 40.48 201.21 51.83 200.12 67.94L198.83 87.98C200.44 88.61 202.29 89.07 204.38 89.35C206.47 89.64 208.38 89.78 210.10 89.78C218.12 89.78 224.10 87.08 228.03 81.66C231.96 76.24 233.92 69.26 233.92 60.72C233.92 56.13 233.06 52.35 231.34 49.36C229.62 46.38 226.90 44.89 223.17 44.89C219.79 44.89 216.68 46.10 213.84 48.50C211.00 50.91 208.58 55.81 206.57 63.21L206.31 63.21C207.29 53.18 207.95 46.73 208.29 43.86ZM213.41 54.70C215.79 50.85 218.27 48.93 220.85 48.93C224.63 48.93 226.52 53.41 226.52 62.35C226.52 68.89 225.41 74.58 223.17 79.42C220.93 84.27 217.06 86.72 211.56 86.77C210.36 86.77 209.15 86.60 207.95 86.26C206.74 85.91 205.83 85.43 205.20 84.80C205.31 79.87 206.11 74.58 207.60 68.93C209.09 63.28 211.03 58.54 213.41 54.70Z"/></svg>